<?xml version="1.0" encoding="utf-8"?>
<!-- Generator: Adobe Illustrator 23.0.1, SVG Export Plug-In . SVG Version: 6.00 Build 0)  -->
<svg version="1.1" id="Layer_1" xmlns="http://www.w3.org/2000/svg" xmlns:xlink="http://www.w3.org/1999/xlink" x="0px" y="0px"
	 viewBox="0 0 200 100" style="enable-background:new 0 0 200 100;" xml:space="preserve">
<style type="text/css">
	.st0{fill:#FFFFFF;}
</style>
<g>
	<path class="st0" d="M145.58,56.4h12.85v-0.38v-3.73H145.6C145.6,53.91,145.59,55.31,145.58,56.4z M41.66,52.29
		c0.91,1.43,1.82,2.87,2.6,4.11h15.45l-2.81-4.11H41.66z M75.87,56.4h8.87c0-1.09,0-2.5,0-4.11h-8.87
		C75.87,53.91,75.87,55.31,75.87,56.4z M92.88,56.4h14.16l1.1-4.11H91.75L92.88,56.4z M115.52,56.4h12.56v-4.11h-12.56V56.4z
		 M101.85,45.82l-0.2,0.74l-0.19-0.74H89.98l1.13,4.11h17.66l1.1-4.11H101.85z M16.36,56.4h12.86v-4.04l0.05-0.07H16.36V56.4z
		 M115.52,49.93h12.56v-4.11h-12.56V49.93z M158.44,45.82H145.6c0,1.43,0,2.81,0,4.11h12.83V45.82z M84.75,45.82h-8.87
		c0,1.43,0,2.81,0,4.11h8.87C84.75,48.63,84.75,47.24,84.75,45.82z M31.09,49.82l4.17-4h-18.9v4.11h14.66L31.09,49.82z M52.49,45.82
		H37.52c0.49,0.76,1.48,2.31,2.63,4.11H55.3L52.49,45.82z M176.39,30.53h14.55c-0.42-1.5-0.93-2.86-1.51-4.11h-15.57
		C174.86,27.57,175.71,28.98,176.39,30.53z M192.25,39.52c0-0.05-0.01-0.11-0.01-0.16h-13.81c0.03,0.56,0.05,1.12,0.05,1.67
		c0,0.85-0.04,1.66-0.11,2.44h13.87C192.4,41.07,192.25,39.52,192.25,39.52z M177,49.93h14.24c0.37-1.45,0.62-2.84,0.79-4.11h-13.96
		C177.77,47.46,177.37,48.86,177,49.93z M178.19,37h13.91c-0.13-1.46-0.33-2.83-0.59-4.11h-14.24
		C177.68,34.22,177.99,35.6,178.19,37z M145.54,24.02c0,0,0,0.02,0,0.05h12.89v-1.19c0,0,5.58-0.09,8.04-0.09
		c2.46,0,4.34,1.27,4.34,1.27c0.01,0,0.01,0.01,0.01,0.01h17.33c-0.98-1.6-2.08-2.96-3.25-4.11h-45.54v1.69c0,0,1.86,0,3.91,0
		S145.54,24.02,145.54,24.02z M175.96,52.4c-0.82,1.67-1.8,2.98-2.88,4h15.65c0.74-1.36,1.32-2.75,1.79-4.11h-14.51
		C175.98,52.35,175.96,52.4,175.96,52.4z M48.07,39.36H29.91l-0.74,0.76c0,0,0-0.28,0-0.76H16.36v4.11h34.52L48.07,39.36z
		 M61.65,59.23l-0.33-0.48h-15.6c0.31,0.51,0.53,0.88,0.62,1.05c0.71,1.35-1.35,1.45-1.35,1.45h-3.48v1.6h25.74v-1.77
		c0,0-0.61,0-2.67,0C62.53,61.09,61.65,59.23,61.65,59.23z M84.76,58.76h-8.88c0,0.02,0,0.03,0,0.03s-0.23,2.51-2.23,2.51
		s-3.82,0-3.82,0v1.57h21.06v-1.61h-4.04C86.84,61.25,84.83,60.75,84.76,58.76z M94.65,62.87h10.65l1.1-4.11H93.52L94.65,62.87z
		 M31.4,61.21c-1.51-0.06-2.19-1.79-2.19-1.79v-0.66H16.35c-0.07,2.12-2.15,2.42-2.15,2.42h-3.98v1.69h25.16v-1.66
		C35.38,61.21,32.91,61.26,31.4,61.21z M162.05,60.02c-3.93,0.27-3.62-1.11-3.62-1.11v-0.16h-12.9c-0.17,2.1-2.23,2.39-2.23,2.39
		h-3.98v1.72h44.32c1.44-1.27,2.64-2.66,3.65-4.11h-17.81C166.83,59.88,164.1,60.02,162.05,60.02z M128.08,58.76h-12.56v0.01
		c0,0-0.14,2.36-1.83,2.36c-1.69,0-4.25,0-4.25,0v1.74h24.76v-1.63h-3.74C130.45,61.23,128.16,60.94,128.08,58.76z M115.52,43.47
		h12.56v-4.11h-12.56V43.47z M168.86,13.44h-29.48v4.16h42.68C175.75,13.25,168.86,13.44,168.86,13.44z M64.63,13.39H41.59v4.21
		h23.04V13.39z M92.95,13.39l-23.12,0.05v4.16h24.23L92.95,13.39z M107.75,24.07h20.32v-0.05c0,0,0.52-2.6,2.74-2.6
		c2.22,0,3.38,0,3.38,0V20v-0.05h-25.32L107.75,24.07z M158.44,26.42h-12.88c0,1.09,0.01,2.49,0.01,4.11h12.87V26.42z M75.87,23.99
		c0,0.02,0,0.05,0,0.08h19.87l-1.08-4.11H69.82v1.57h3.87C73.69,21.53,75.87,21.85,75.87,23.99z M16.35,24.07h12.81
		c0,0,0-0.01,0-0.01c0-1.92,2-2.4,2-2.4h4.21v-1.7H10.24v1.6h3.89C16.01,21.55,16.32,23.78,16.35,24.07z M45.64,23.36l-0.7,0.71
		h13.35l1.64-1.55c1.86-1.28,4.69-0.98,4.69-0.98v-1.58H41.59v1.54c0,0,1.86,0,3.58,0S45.64,23.36,45.64,23.36z M109.51,17.6h24.68
		v-4.21h-23.54L109.51,17.6z M96.42,69.34h7.14l1.11-4.12h-9.37L96.42,69.34z M109.43,69.34h24.76v-4.12h-24.76L109.43,69.34
		L109.43,69.34z M139.32,69.34h27.39c5.79-0.45,10.27-1.98,13.75-4.12h-41.14V69.34z M41.52,69.34h25.74v-4.12H41.52
		C41.52,65.22,41.52,69.34,41.52,69.34z M10.22,69.37l25.16-0.03v-4.12H10.22C10.22,65.22,10.22,69.37,10.22,69.37z M84.75,39.36
		h-8.87c0,1.37,0,2.75,0,4.11h8.87C84.75,42.09,84.75,40.71,84.75,39.36z M69.82,69.34h21.06v-4.12H69.82V69.34z M35.38,13.43H10.24
		v4.17h25.14V13.43z M16.36,37h12.81c0-1.2,0-2.63,0-4.11H16.36V37z M46.45,37l-0.71-1.04l3.24-3.07H36.27L32.23,37L46.45,37
		L46.45,37z M84.75,32.89h-8.87c0,1.3,0,2.68,0,4.11h8.87C84.75,35.54,84.75,34.15,84.75,32.89z M158.44,39.36h-12.84
		c0,1.36,0.01,2.75,0.01,4.11h12.84L158.44,39.36L158.44,39.36z M89.33,43.47h11.51l-1.08-4.11H88.21L89.33,43.47z M111.6,39.36h-8
		l-1.11,4.11h8.01L111.6,39.36z M87.56,37h11.58l-1.08-4.11H86.44L87.56,37z M115.07,26.42h-7.96L106,30.53h7.97L115.07,26.42z
		 M75.87,30.53h8.87c0-2.32,0-3.8,0-3.8l1.04,3.8h11.66l-1.08-4.11H75.87C75.87,27.52,75.87,28.93,75.87,30.53z M113.34,32.89h-7.98
		L104.24,37h7.99L113.34,32.89z M55.81,26.42H42.63l-4.04,4.11h12.88L55.81,26.42z M128.07,26.46v-0.04h-12.56v4.11h12.56V26.46z
		 M115.52,37h12.56v-4.11h-12.56V37z M158.44,32.89h-12.86c0,1.3,0.01,2.68,0.01,4.11h12.85V32.89z M29.16,26.42H16.36v4.11h12.81
		C29.16,29.02,29.16,27.58,29.16,26.42z"/>
</g>
<g>
	<g>
		<path class="st0" d="M66.71,86.61v-0.53c1.56-0.17,1.71-0.25,1.71-1.86v-7.54c0-1.63-0.15-1.71-1.71-1.88v-0.53h5.09v0.53
			c-1.58,0.17-1.73,0.25-1.73,1.88v7.54c0,1.63,0.15,1.69,1.73,1.86v0.53H66.71z"/>
		<path class="st0" d="M78.71,86.61v-0.53c1.1-0.11,1.22-0.25,1.22-1.54V81.4c0-1.33-0.48-2.22-1.73-2.22
			c-0.78,0-1.52,0.46-2.11,0.99v4.45c0,1.31,0.11,1.35,1.23,1.46v0.53h-4.1v-0.53c1.25-0.13,1.37-0.21,1.37-1.46V80.7
			c0-1.23-0.13-1.29-1.16-1.46v-0.49c0.93-0.15,1.86-0.4,2.66-0.76c0,0.44,0,1.04,0,1.5c0.38-0.27,0.8-0.55,1.29-0.87
			c0.53-0.34,1.03-0.57,1.58-0.57c1.52,0,2.47,1.12,2.47,2.96v3.61c0,1.29,0.11,1.35,1.22,1.46v0.53H78.71z"/>
		<path class="st0" d="M88.73,80.53c-0.34-1.1-0.84-1.86-1.99-1.86c-0.66,0-1.18,0.47-1.18,1.23c0,0.82,0.55,1.2,1.61,1.69
			c1.63,0.78,2.45,1.35,2.45,2.6c0,1.75-1.6,2.64-3.1,2.64c-0.99,0-1.86-0.3-2.26-0.53c-0.09-0.55-0.27-1.6-0.34-2.22l0.55-0.1
			c0.34,1.22,1.01,2.2,2.34,2.2c0.72,0,1.33-0.49,1.33-1.29c0-0.85-0.51-1.29-1.52-1.79c-1.33-0.65-2.41-1.25-2.41-2.62
			c0-1.39,1.18-2.45,2.96-2.45c0.8,0,1.44,0.19,1.82,0.25c0.06,0.46,0.19,1.65,0.29,2.11L88.73,80.53z"/>
		<path class="st0" d="M94.58,86.59c-0.32,0.17-0.63,0.25-0.82,0.25c-1.22,0-1.86-0.74-1.86-2.26v-5.53h-1.31l-0.08-0.23l0.51-0.55
			h0.87v-1.6c0.36-0.38,0.91-0.87,1.27-1.25l0.29,0.04c-0.04,0.8-0.06,1.9-0.06,2.81h2.17c0.17,0.19,0.11,0.61-0.11,0.78H93.4v4.86
			c0,1.54,0.61,1.82,1.1,1.82c0.46,0,0.89-0.17,1.16-0.3l0.17,0.49L94.58,86.59z"/>
		<path class="st0" d="M96.61,86.61v-0.53c1.2-0.11,1.33-0.21,1.33-1.5v-3.91c0-1.18-0.06-1.25-1.2-1.44v-0.46
			c0.99-0.17,1.88-0.42,2.7-0.76c0,0.8,0,1.6,0,2.39v4.18c0,1.29,0.13,1.39,1.37,1.5v0.53H96.61z M98.59,76.14
			c-0.53,0-1.01-0.47-1.01-1.01c0-0.61,0.48-1.04,1.03-1.04c0.53,0,0.97,0.44,0.97,1.04C99.58,75.67,99.14,76.14,98.59,76.14z"/>
		<path class="st0" d="M105.5,86.59c-0.32,0.17-0.63,0.25-0.82,0.25c-1.22,0-1.86-0.74-1.86-2.26v-5.53h-1.31l-0.08-0.23l0.51-0.55
			h0.87v-1.6c0.36-0.38,0.91-0.87,1.27-1.25l0.29,0.04c-0.04,0.8-0.06,1.9-0.06,2.81h2.17c0.17,0.19,0.11,0.61-0.11,0.78h-2.05v4.86
			c0,1.54,0.61,1.82,1.1,1.82c0.46,0,0.89-0.17,1.16-0.3l0.17,0.49L105.5,86.59z"/>
		<path class="st0" d="M116.75,86.17c-0.91,0.13-1.94,0.38-2.91,0.66c0-0.3,0-0.99,0-1.46c-1.03,0.85-1.86,1.46-2.91,1.46
			c-1.27,0-2.38-0.78-2.38-2.85V80.3c0-1.03-0.15-1.14-0.63-1.24l-0.53-0.09v-0.49c0.82-0.04,2.07-0.23,2.72-0.34
			c-0.06,0.61-0.06,1.52-0.06,2.77v2.58c0,1.67,0.87,2.15,1.73,2.15c0.7,0,1.41-0.3,2.05-0.91V80.3c0-1.03-0.23-1.16-0.87-1.25
			l-0.61-0.08v-0.49c1.22-0.06,2.54-0.27,2.98-0.34v6.36c0,0.95,0.15,1.08,0.87,1.12l0.53,0.02V86.17z"/>
		<path class="st0" d="M121.42,86.59c-0.32,0.17-0.63,0.25-0.82,0.25c-1.22,0-1.86-0.74-1.86-2.26v-5.53h-1.31l-0.08-0.23l0.51-0.55
			h0.87v-1.6c0.36-0.38,0.91-0.87,1.27-1.25l0.29,0.04c-0.04,0.8-0.06,1.9-0.06,2.81h2.17c0.17,0.19,0.11,0.61-0.11,0.78h-2.05v4.86
			c0,1.54,0.61,1.82,1.1,1.82c0.46,0,0.89-0.17,1.16-0.3l0.17,0.49L121.42,86.59z"/>
		<path class="st0" d="M130.45,84.99c-1.22,1.52-2.54,1.84-3.15,1.84c-2.32,0-3.72-1.9-3.72-4.08c0-1.29,0.46-2.49,1.24-3.32
			c0.8-0.89,1.84-1.39,2.83-1.39c1.65,0,2.91,1.42,2.91,2.94c-0.02,0.38-0.08,0.55-0.38,0.63c-0.38,0.08-2.81,0.25-5.07,0.32
			c-0.06,2.54,1.5,3.59,2.85,3.59c0.78,0,1.5-0.32,2.2-0.97L130.45,84.99z M127.18,78.76c-0.87,0-1.73,0.82-1.99,2.36
			c1.06,0,2.13,0,3.25-0.06c0.34,0,0.46-0.1,0.46-0.38C128.91,79.67,128.25,78.76,127.18,78.76z"/>
	</g>
</g>
</svg>